# xmcd
#
# Track frame offsets:
# 150
# 35677
# 112660
# 164020
#
# Disc length: 3073 seconds
#
# Revision: 0
# Processed by: cddbd v1.5PL3 Copyright (c) Steve Scherf et al.
# Submitted via: MacMP3 Pro 5.0 (http://mp3.act2.co.jp/)
#
DISCID=2b0bff04
DTITLE=Conference-special(bonus) - Jyakucyo-special
DYEAR=1900
DGENRE=
TTITLE0=Bonus-1
TTITLE1=Bonus-2
TTITLE2=Bonus-3
TTITLE3=Bonus-4
EXTD=
EXTT0=
EXTT1=
EXTT2=
EXTT3=
PLAYORDER=
